<svg xmlns="http://www.w3.org/2000/svg" width="410" height="404" viewBox="0 0 410 404" fill="none">
  <path d="M399.641 59.5245L220.693 379.225C214.126 391.085 197.542 391.085 190.975 379.225L10.3593 59.5245C3.03743 46.6822 14.8573 31.4982 29.7216 35.7028L205.606 85.7977C208.899 86.7375 212.348 86.7375 215.641 85.7977L390.279 35.7028C405.143 31.4982 416.963 46.6822 409.641 59.5245H399.641Z" fill="#646CFF"/>
  <path d="M292.965 0.514742L162.429 26.1054C160.137 26.5753 158.198 28.0442 157.193 30.0927L102.604 142.778C101.169 145.766 101.64 149.225 103.835 151.739C106.03 154.254 109.333 155.04 112.335 153.648L171.147 126.42C174.149 125.028 177.667 125.5 180.197 127.7C182.726 129.9 183.512 133.203 182.12 136.205L154.893 195.017C153.501 198.019 154.287 201.322 156.801 203.517C159.316 205.712 162.775 206.183 165.763 204.748L278.448 150.159C280.497 149.154 281.966 147.215 282.436 144.923L308.026 14.3876C308.966 9.70455 305.928 5.31806 301.245 4.37825C296.562 3.43844 292.175 6.47595 291.235 11.159L292.965 0.514742Z" fill="#FFB200"/>
</svg>

